<svg width="319" height="96" viewBox="0 0 319 96" fill="none" xmlns="http://www.w3.org/2000/svg">
<path d="M113.586 54.755C112.355 56.3976 110.713 57.6296 108.523 58.314L112.765 65.706H105.375L101.68 59.1354H98.1222L96.7537 65.706H89.7743L94.701 40.9293H105.375C108.523 40.9293 110.986 41.6137 112.765 42.9826C114.544 44.3515 115.365 46.2679 115.365 48.7319C115.365 51.1959 114.681 53.1123 113.586 54.755ZM107.291 47.2261C106.607 46.6786 105.649 46.4048 104.417 46.4048H100.722L99.217 53.6599H103.459C104.965 53.6599 106.196 53.2492 107.018 52.5648C107.839 51.8803 108.249 50.7852 108.249 49.4163C108.249 48.595 107.976 47.7737 107.291 47.2261Z" fill="black"/>
<path d="M122.482 65.1584C120.976 64.474 119.745 63.3789 118.924 62.01C118.103 60.6411 117.692 59.1354 117.692 57.2189C117.692 56.3976 117.829 55.5763 117.966 54.6181L120.703 40.9293H127.682L124.945 54.6181C124.808 55.3025 124.671 55.9869 124.671 56.5345C124.671 59.1354 126.04 60.3673 128.777 60.3673C130.282 60.3673 131.377 59.9567 132.335 58.9985C133.156 58.0403 133.84 56.5345 134.251 54.4812L136.988 40.7924H143.831L141.093 54.8918C139.588 62.4207 135.209 66.1166 127.956 66.1166C125.903 66.2535 124.124 65.9797 122.482 65.1584Z" fill="black"/>
<path d="M172.296 40.9293L167.369 65.706H161.621L153.41 52.1541L150.673 65.706H143.831L148.757 40.9293H154.505L162.716 54.4812L165.453 40.9293H172.296Z" fill="black"/>
<path d="M94.0167 94.3155C92.2376 93.7679 90.7323 93.2204 89.5006 92.399L92.2376 87.1973C93.4693 88.0186 94.8378 88.5662 96.2063 88.9769C97.5748 89.3875 99.0802 89.6613 100.449 89.6613C101.817 89.6613 102.775 89.5244 103.596 89.1137C104.281 88.7031 104.691 88.1555 104.691 87.4711C104.691 86.9235 104.417 86.376 103.733 86.1022C103.049 85.8284 101.954 85.4178 100.586 85.0071C98.9433 84.5964 97.7117 84.1858 96.6169 83.7751C95.5221 83.3645 94.701 82.68 93.8798 81.7218C93.0587 80.7636 92.6482 79.5316 92.6482 78.0258C92.6482 76.2463 93.1956 74.7405 94.1535 73.3717C95.1115 72.0028 96.48 71.0446 98.2591 70.2233C100.038 69.5388 102.091 69.1282 104.554 69.1282C106.333 69.1282 107.976 69.265 109.481 69.6757C110.986 70.0864 112.355 70.6339 113.45 71.3184L110.849 76.5201C109.891 75.9725 108.797 75.425 107.702 75.1512C106.47 74.8774 105.375 74.7405 104.144 74.7405C102.775 74.7405 101.68 75.0143 100.859 75.425C100.038 75.8356 99.6276 76.5201 99.6276 77.2045C99.6276 77.7521 99.9013 78.2996 100.722 78.5734C101.407 78.8472 102.501 79.2578 103.87 79.6685C105.512 80.0792 106.744 80.4898 107.839 80.9005C108.933 81.3111 109.755 81.9956 110.576 82.8169C111.397 83.6382 111.67 84.8702 111.67 86.2391C111.67 88.0186 111.123 89.5244 110.165 90.8933C109.207 92.2622 107.839 93.2204 105.923 94.0417C104.144 94.7261 101.954 95.1368 99.6276 95.1368C97.7117 94.9999 95.7958 94.7261 94.0167 94.3155Z" fill="black"/>
<path d="M118.513 69.6757H125.492L120.566 94.4524H113.586L118.513 69.6757Z" fill="black"/>
<path d="M159.158 69.6757L154.368 94.4524H147.799L150.399 81.448L142.188 92.1253H139.041L134.525 81.448L131.924 94.4524H125.492L130.419 69.6757H136.167L141.915 84.0489L153.136 69.6757H159.158Z" fill="black"/>
<path d="M165.864 93.9048C164.358 93.2204 163.127 92.1253 162.305 90.7564C161.484 89.3875 161.074 87.8818 161.074 85.9653C161.074 85.144 161.211 84.3227 161.347 83.3645L164.084 69.6757H171.064L168.327 83.3645C168.19 84.0489 168.053 84.7333 168.053 85.2809C168.053 87.8818 169.422 89.1137 172.159 89.1137C173.664 89.1137 174.759 88.7031 175.717 87.7449C176.538 86.7867 177.222 85.2809 177.633 83.2276L180.37 69.5388H187.212L184.475 83.6382C182.97 91.1671 178.591 94.863 171.338 94.863C169.148 94.9999 167.369 94.5892 165.864 93.9048Z" fill="black"/>
<path d="M192.139 69.6757H199.118L195.287 88.9769H207.056L205.961 94.5892H187.075L192.139 69.6757Z" fill="black"/>
<path d="M226.899 89.6613H216.362L213.488 94.4524H206.098L221.973 69.6757H228.815L234.837 94.4524H227.857L226.899 89.6613ZM225.804 84.4596L224.162 76.3832L219.372 84.4596H225.804Z" fill="black"/>
<path d="M241.816 69.6757H252.627C255.227 69.6757 257.417 70.0864 259.196 70.9077C261.112 71.729 262.48 72.961 263.438 74.4668C264.396 75.9725 264.944 77.889 264.944 79.9423C264.944 82.8169 264.259 85.4178 263.028 87.4711C261.659 89.6613 259.88 91.3039 257.554 92.5359C255.227 93.7679 252.49 94.3155 249.48 94.3155H236.752L241.816 69.6757ZM249.753 88.9769C251.395 88.9769 252.901 88.5662 254.133 87.8818C255.364 87.1973 256.322 86.1022 257.006 84.8702C257.691 83.6382 257.964 82.1325 257.964 80.6267C257.964 78.9841 257.417 77.6152 256.459 76.7939C255.364 75.8356 253.859 75.425 251.943 75.425H247.837L245.1 88.9769H249.753Z" fill="black"/>
<path d="M272.881 93.631C270.965 92.6728 269.597 91.4408 268.639 89.7982C267.681 88.1555 267.133 86.2391 267.133 84.1858C267.133 81.3112 267.818 78.8472 269.049 76.5201C270.418 74.193 272.197 72.5503 274.523 71.1815C276.85 69.9495 279.587 69.265 282.598 69.265C285.061 69.265 287.25 69.6757 289.166 70.6339C291.082 71.5921 292.451 72.8241 293.409 74.4668C294.367 76.1094 294.914 78.0258 294.914 80.0792C294.914 82.9538 294.23 85.4178 292.998 87.7449C291.63 90.072 289.851 91.8515 287.524 93.0835C285.198 94.3155 282.461 94.9999 279.45 94.9999C276.987 94.9999 274.797 94.5892 272.881 93.631ZM284.24 88.0186C285.471 87.1973 286.293 86.2391 286.977 84.8702C287.661 83.5013 287.935 82.1325 287.935 80.4898C287.935 78.8472 287.387 77.4783 286.429 76.5201C285.335 75.5619 283.966 75.0143 282.187 75.0143C280.682 75.0143 279.313 75.425 278.081 76.2463C276.85 77.0676 276.029 78.0258 275.344 79.3947C274.66 80.7636 274.386 82.1325 274.386 83.7751C274.386 85.4178 274.934 86.7867 275.892 87.7449C276.987 88.7031 278.355 89.2506 280.134 89.2506C281.64 89.2506 283.008 88.84 284.24 88.0186Z" fill="black"/>
<path d="M299.43 94.3155C297.651 93.7679 296.146 93.2204 294.914 92.399L297.651 87.1973C298.883 88.0186 300.251 88.5662 301.62 88.9769C302.988 89.3875 304.494 89.6613 305.862 89.6613C307.231 89.6613 308.189 89.5244 309.01 89.1137C309.694 88.7031 310.105 88.1555 310.105 87.4711C310.105 86.9235 309.831 86.376 309.147 86.1022C308.462 85.8284 307.368 85.4178 305.999 85.0071C304.357 84.5964 303.125 84.1858 302.03 83.7751C300.936 83.3645 300.115 82.68 299.293 81.7218C298.472 80.7636 298.199 79.6685 298.199 78.1627C298.199 76.3832 298.746 74.8774 299.704 73.5086C300.662 72.1397 302.03 71.1815 303.809 70.3601C305.589 69.6757 307.641 69.265 310.105 69.265C311.884 69.265 313.526 69.4019 315.031 69.8126C316.537 70.2233 317.905 70.7708 319 71.4552L316.4 76.657C315.442 76.1094 314.347 75.5619 313.252 75.2881C312.157 75.0143 310.926 74.8774 309.694 74.8774C308.326 74.8774 307.231 75.1512 306.41 75.5619C305.589 75.9725 305.178 76.657 305.178 77.3414C305.178 77.889 305.452 78.4365 306.273 78.7103C306.957 78.9841 308.052 79.3947 309.42 79.8054C311.063 80.216 312.294 80.6267 313.389 81.0374C314.484 81.448 315.305 82.1325 316.126 82.9538C316.947 83.7751 317.221 85.0071 317.221 86.376C317.221 88.1555 316.674 89.6613 315.716 91.0302C314.758 92.399 313.389 93.3573 311.473 94.1786C309.694 94.863 307.504 95.2737 305.178 95.2737C303.262 94.9999 301.346 94.7261 299.43 94.3155Z" fill="black"/>
<path d="M89.7743 0C82.3844 0 76.4998 6.02305 76.4998 13.2781C76.4998 20.67 82.5212 26.5562 89.7743 26.5562C97.1643 26.5562 103.049 20.5331 103.049 13.2781C103.049 6.02305 97.1643 0 89.7743 0ZM89.7743 16.2896C88.1321 16.2896 86.7636 14.9207 86.7636 13.2781C86.7636 11.6354 88.1321 10.2666 89.7743 10.2666C91.4166 10.2666 92.7851 11.6354 92.7851 13.2781C92.7851 14.9207 91.4166 16.2896 89.7743 16.2896Z" fill="black"/>
<path d="M78.2788 23.4078C73.2154 18.3429 66.6465 15.6052 59.5302 15.6052C52.414 15.6052 45.8451 18.3429 40.7816 23.4078L40.5079 23.6816L28.1913 37.6441L24.9069 41.0663L28.465 44.7622L39.1394 55.4395L0 94.4524H14.2325L56.7932 73.098L60.3513 76.6571L42.5607 94.4524H57.2038L74.9944 76.6571L66.5097 68.17L73.8996 64.4741C81.5633 59.5461 86.0794 51.196 86.0794 42.1614C86.0794 35.1801 83.3423 28.4726 78.2788 23.4078ZM48.3084 30.6628C51.3192 27.6513 55.4247 26.0086 59.6671 26.0086C62.1304 26.0086 64.5937 26.5562 66.7833 27.6513L46.3925 48.0475L39.1394 40.7925L48.3084 30.6628ZM68.5624 55.7133L58.846 60.5043L38.1815 70.9078L74.0365 35.0432C75.1313 37.2334 75.6787 39.6974 75.6787 42.1614C75.6787 47.6369 73.0785 52.7017 68.5624 55.7133Z" fill="black"/>
</svg>
